<svg xmlns="http://www.w3.org/2000/svg" viewBox="0 0 200 200" width="200" height="200">
  <!-- Outer dark circle -->
  <circle cx="100" cy="100" r="90" fill="none" stroke="#0F172A" stroke-width="12"/>
  <!-- Cloud shape -->
  <path d="M60 115 C60 115 55 115 50 110 C42 102 45 90 55 86 C55 70 68 58 85 58 C95 58 104 63 109 71 C112 69 116 68 120 68 C135 68 147 80 147 95 C147 95 155 97 155 108 C155 118 147 122 140 122 L65 122 C58 122 50 118 50 110" 
        fill="none" stroke="#0EA5E9" stroke-width="8" stroke-linecap="round" stroke-linejoin="round"/>
  <!-- Circuit stem -->
  <line x1="100" y1="122" x2="100" y2="170" stroke="#0EA5E9" stroke-width="6" stroke-linecap="round"/>
  <!-- Circuit nodes -->
  <circle cx="100" cy="130" r="5" fill="white" stroke="#0EA5E9" stroke-width="4"/>
  <circle cx="100" cy="155" r="5" fill="white" stroke="#0EA5E9" stroke-width="4"/>
</svg>
